<svg xmlns="http://www.w3.org/2000/svg" fill="#ffffff" viewBox="0 0 24 24" width="24" height="24">
  <path d="M12 2.2c3.2 0 3.6 0 4.9.1 1.2.1 2 .3 2.4.5.6.2 1.1.6 1.6 1.1.5.5.9 1 1.1 1.6.2.4.4 1.2.5 2.4.1 1.3.1 1.7.1 4.9s0 3.6-.1 4.9c-.1 1.2-.3 2-.5 2.4-.2.6-.6 1.1-1.1 1.6-.5.5-1 .9-1.6 1.1-.4.2-1.2.4-2.4.5-1.3.1-1.7.1-4.9.1s-3.6 0-4.9-.1c-1.2-.1-2-.3-2.4-.5-.6-.2-1.1-.6-1.6-1.1-.5-.5-.9-1-1.1-1.6-.2-.4-.4-1.2-.5-2.4-.1-1.3-.1-1.7-.1-4.9s0-3.6.1-4.9c.1-1.2.3-2 .5-2.4.2-.6.6-1.1 1.1-1.6.5-.5 1-.9 1.6-1.1.4-.2 1.2-.4 2.4-.5C8.4 2.2 8.8 2.2 12 2.2zm0-2.2C8.7 0 8.3 0 7 .1 5.7.2 4.8.4 4.1.6c-.8.2-1.6.6-2.3 1.3-.7.7-1.1 1.4-1.3 2.3C.4 5 0 5.8.1 7 .2 8.3.2 8.7.2 12s0 3.7.1 5c.1 1.3.3 2.2.5 2.9.2.8.6 1.6 1.3 2.3.7.7 1.4 1.1 2.3 1.3.7.2 1.6.4 2.9.5 1.3.1 1.7.1 5 .1s3.7 0 5-.1c1.3-.1 2.2-.3 2.9-.5.8-.2 1.6-.6 2.3-1.3.7-.7 1.1-1.4 1.3-2.3.2-.7.4-1.6.5-2.9.1-1.3.1-1.7.1-5s0-3.7-.1-5c-.1-1.3-.3-2.2-.5-2.9-.2-.8-.6-1.6-1.3-2.3C21.2.9 20.4.5 19.6.3 18.9.1 18 .1 16.7 0 15.4 0 15 0 12 0zM12 5.8c-3.4 0-6.2 2.8-6.2 6.2S8.6 18.2 12 18.2 18.2 15.4 18.2 12 15.4 5.8 12 5.8zm0 10.3c-2.3 0-4.1-1.8-4.1-4.1S9.7 7.9 12 7.9s4.1 1.8 4.1 4.1-1.8 4.1-4.1 4.1zm5.7-11.3c0 .8-.6 1.4-1.4 1.4S14.9 5.6 14.9 4.8s.6-1.4 1.4-1.4 1.4.6 1.4 1.4z"/>
</svg>