<svg xmlns="http://www.w3.org/2000/svg" fill="#ffffff" viewBox="0 0 32 32" width="24" height="24">
  <path d="M16 2C8.3 2 2 8.3 2 16c0 2.9.9 5.5 2.4 7.7L2 30l6.4-2.4C10.5 28.1 13.2 29 16 29c7.7 0 14-6.3 14-13.9C30 8.3 23.7 2 16 2zm0 24.8c-2.4 0-4.7-.7-6.7-2.1l-.5-.3-3.8 1.4 1.4-3.7-.3-.5c-1.2-1.8-1.9-3.9-1.9-6.1 0-6.2 5.1-11.2 11.3-11.2S27.3 9.8 27.3 16c0 6.2-5.1 11.3-11.3 11.3zm6.4-8c-.4-.2-2.3-1.2-2.6-1.3-.4-.2-.6-.2-.8.2s-1 1.3-1.2 1.6-.4.3-.8.1c-.4-.2-1.6-.6-3-1.8-1.1-1-1.8-2.2-2-2.5s0-.6.2-.8c.2-.2.4-.5.6-.7.2-.2.3-.3.4-.5.2-.2.1-.4 0-.6s-.8-1.9-1.1-2.5c-.3-.7-.6-.6-.8-.6s-.5-.1-.8-.1c-.2 0-.6.1-.9.4-.3.3-1.2 1.1-1.2 2.8 0 1.6 1.3 3.2 1.5 3.4.2.3 2.6 4 6.4 5.4.9.4 1.6.6 2.1.7.9.3 1.8.2 2.4.1.7-.1 2.3-1 2.6-2 .3-1 .3-1.8.2-2 0-.3-.3-.4-.7-.6z"/>
</svg>